<svg width="58" height="24" viewBox="0 0 58 24" fill="none" xmlns="http://www.w3.org/2000/svg">
    <path d="M54.3393 16.1818V22H53.2768L50.7456 18.3381H50.703V22H49.4729V16.1818H50.5524L53.0638 19.8409H53.1149V16.1818H54.3393Z" fill="#D1D6E3"/>
    <path d="M42.0608 16.1818V22H40.8307V16.1818H42.0608Z" fill="#D1D6E3"/>
    <path d="M27.1104 16.1818H28.6274L30.2297 20.0909H30.2979L31.9001 16.1818H33.4172V22H32.224V18.2131H32.1757L30.67 21.9716H29.8575L28.3518 18.1989H28.3035V22H27.1104V16.1818Z" fill="#D1D6E3"/>
    <path d="M16.9525 22H14.89V16.1818H16.9696C17.5548 16.1818 18.0586 16.2983 18.481 16.5313C18.9033 16.7623 19.2281 17.0947 19.4554 17.5284C19.6846 17.9621 19.7991 18.4811 19.7991 19.0852C19.7991 19.6913 19.6846 20.2121 19.4554 20.6477C19.2281 21.0833 18.9014 21.4176 18.4753 21.6506C18.051 21.8835 17.5435 22 16.9525 22ZM16.1202 20.946H16.9014C17.265 20.946 17.5709 20.8816 17.819 20.7528C18.069 20.6222 18.2565 20.4205 18.3815 20.1477C18.5084 19.8731 18.5719 19.5189 18.5719 19.0852C18.5719 18.6553 18.5084 18.304 18.3815 18.0313C18.2565 17.7585 18.07 17.5578 17.8219 17.429C17.5738 17.3002 17.2679 17.2358 16.9042 17.2358H16.1202V20.946Z" fill="#D1D6E3"/>
    <path d="M3.50852 22H2.19034L4.19886 16.1818H5.78409L7.78977 22H6.47159L5.0142 17.5114H4.96875L3.50852 22ZM3.42613 19.7131H6.53977V20.6733H3.42613V19.7131Z" fill="#D1D6E3"/>
    <path d="M4.51641 0L7.53861 9.16442H7.65257L10.679 0H15.1954L10.3329 13H4.86675L0 0H4.51641Z" fill="white"/>
    <path d="M20.0405 0V13H16.0391V0H20.0405Z" fill="white"/>
    <path d="M34.4767 13V11.045L41.4412 2.84503H34.5062V0H46.5359V1.95503L39.5714 10.155H46.5064V13H34.4767Z" fill="white"/>
    <path d="M47.3789 13V0H57.9988V2.84503H51.3804V5.07935H57.4543V7.92438H51.3804V10.1587H57.9693V13.0037H47.3789V13Z" fill="white"/>
    <path d="M5.40234 0L7.58879 6.65082L9.79635 0L7.60146 0.822973L5.40234 0Z" fill="white"/>
    <path d="M24.882 0.785735L24.2784 0H20.8848V13H24.882V6.17044V0.785735Z" fill="white"/>
    <path d="M29.6309 0V6.80349H29.517L25.7266 1.88055V7.14237L30.2936 13H33.6324V0H29.6309Z" fill="white"/>
</svg>
